<svg version="1.0" xmlns="http://www.w3.org/2000/svg" viewBox="0 0 865.06 253.01"><path class="st0" d="M257.95 101.99c-6.91-3.1-13.97-4.49-19.68-5.06v29.18c4.58-9.24 11.28-17.52 19.68-24.12zM341.85 107.11a64.99 64.99 0 00-4.86-3.49c-3.26-2.12-6.84-3.99-10.65-5.56-1.31-.54-2.61-1.01-3.94-1.47l-.24-.05c-.63-.12-1.67-.32-2.55-.83-14.48-4.29-30.75-3.04-44.88 3.48l-3.83 2.39c2.24 1.68 4.3 3.49 6.12 5.47 7.69 8.34 8.73 17.6 8.73 25.56v6.99c.26-.3.51-.62.79-.89 3.92-3.88 9.08-5.75 15.54-5.74 6.12.05 11.15 1.98 14.96 5.74 1.15 1.13 2.15 2.46 3.05 3.92 1.04-4.05 2.4-8.01 4.11-11.77 4.23-9.29 10.28-17.31 17.65-23.75z"/><path class="st0" d="M271.94 111.75c-2.08-2.26-4.52-4.31-7.26-6.11-16.4 11.71-26.38 30.18-26.4 49.44v.58h-.02c0 .17-.01.33-.02.49-.17 10.08-2.8 17.96-7.68 22.79-3.85 3.81-8.97 5.74-15.21 5.74h-.34c-6.46-.07-11.66-2.14-15.47-6.14-8.56-9-7.92-25.35-7.41-38.49.11-2.7.21-5.23.21-7.46 0-9.51-2-15.56-6.89-20.86-7.49-8.12-19.62-13.43-33.66-14.82v58.74c0 7 .28 12.91 1.63 19 4.34 19.54 16.62 34.91 34.6 43.28 14.17 6.6 30.52 7.87 45.07 3.56.88-.51 1.92-.71 2.56-.83l.23-.05c1.33-.46 2.63-.93 3.94-1.47 3.8-1.57 7.39-3.44 10.65-5.56 6.64-4.32 12.41-9.79 17.15-16.28 6.92-9.47 11.22-22.81 11.22-34.81v-29.9c-.01-9.49-2.01-15.53-6.9-20.84zM630.78 101.5c-5.53-2.33-11.78-3.91-18.48-4.57v27.83c4.39-8.87 10.69-16.83 18.48-23.26zM505.57 36.86c-14.04 1.4-26.18 6.71-33.67 14.83-4.89 5.3-6.89 11.35-6.89 20.86V89.9h40.55V36.86zM465.02 224.52c14.04-1.4 26.18-6.7 33.67-14.82 5.05-5.48 6.89-21.87 6.89-31.55v-33.83h-40.55v80.2zM604.58 177.44c-3.92 3.88-9.06 5.78-15.54 5.74-6.38-.07-11.54-2.09-15.34-6-6.51-6.72-7.78-22.37-7.8-32.86h-40.07c.09 9.09.55 24.04 1.61 28.84 4.34 19.54 16.62 34.91 34.6 43.28 13.61 6.34 29.22 7.75 43.33 4.04v-43.92c-.26.28-.51.6-.79.88zM651.06 107.05c7.69 8.33 8.72 17.6 8.72 25.56v5.47c.26-.3.51-.62.79-.89 3.85-3.81 8.97-5.74 15.21-5.74h1.99c11.36-.57 27.2-3.52 37.13-14.28 4.89-5.3 6.89-11.35 6.89-20.86v-4.19c-12.49-.04-51.89.25-54.79.63-1.79.25-3.56.57-5.27.95l-5.14 1.38c-4.51 1.45-8.76 3.4-12.75 5.72 2.68 1.88 5.11 3.96 7.22 6.25zM645.97 111.75c-2.36-2.56-5.23-4.8-8.43-6.77-15.43 11.57-25.24 29.56-25.24 48.65v64.59c.51-.19 1.03-.36 1.53-.57 3.8-1.57 7.39-3.44 10.65-5.56 6.64-4.32 12.42-9.8 17.15-16.28 6.73-9.21 10.94-22.07 11.17-33.8.01-.33.04-.68.04-1.01v-28.38c.01-9.52-1.98-15.57-6.87-20.87zM370.1 145.17c5.02-4.88 13.13-7.47 23.52-7.47l63.25-.32h1.21V96.81l-29.78-.01c-4.71 0-9.61-.15-14.35-.3-13.62-.42-27.71-.86-40.54 2.09-7.65 1.76-14.65 4.79-20.84 8.91 2.54 2.56 4.94 5.27 7.1 8.22 1.06 1.28 7.88 10.15 10.43 29.45zM565.97 137.38c-1.39-14.04-6.7-26.17-14.82-33.67-5.31-4.89-11.35-6.89-20.86-6.89H512.5v40.56h53.47z"/><path class="st0" d="M437.02 190.52c-5.31-4.89-11.35-6.89-20.86-6.89-2.23 0-4.76.1-7.46.21-13.13.51-29.48 1.15-38.48-7.41-4-3.8-6.06-9.01-6.14-15.46 0-.11.01-.21.01-.31 0-.33.02-.65.03-.97-.19-27.93-9.69-39.43-9.79-39.54l-.18-.22c-2.16-2.96-4.57-5.69-7.15-8.21-6.89 5.85-12.5 13.27-16.49 22.03-3.51 7.7-5.49 16.25-5.73 24.75v4.08c.25 8.48 2.23 17.02 5.73 24.7 8.29 18.22 23.53 30.69 42.89 35.14 12.82 2.94 26.91 2.51 40.53 2.09 4.74-.15 9.65-.3 14.37-.3h23.53c-1.38-14.07-6.69-26.2-14.81-33.69zM465.02 96.81v40.57h40.55V96.82zM787.97 183.83c-2.33 0-4.76.11-7.33.22-10.31.47-20.96.94-27.85-5.56-4.09-3.87-6.13-9.54-6.21-17.33l-.04-3.5h77.14c.81-7.56 1.69-28.62-10.73-43.55-9.26-11.12-24.13-16.76-44.2-16.76-26.09 0-50.19 18.28-58.6 44.45l-1.35 5.05c-.38 1.7-.69 3.45-.93 5.2-.5 3.62-.7 7.21-.6 10.67.24 8.5 2.23 17.06 5.73 24.75 8.29 18.22 23.53 30.69 42.89 35.14 12.43 2.85 20.46 2.53 30.64 2.13 3.96-.16 8.45-.34 13.58-.34h23.53c-1.4-14.04-6.7-26.18-14.82-33.67-5.3-4.91-11.34-6.9-20.85-6.9zM143.1 120.46V96.93c-14.04 1.4-26.17 6.71-33.67 14.83-4.89 5.3-6.89 11.35-6.89 20.86 0 2.23.1 4.76.21 7.46.51 13.14 1.15 29.48-7.41 38.49-3.8 4-9 6.06-15.46 6.14l-.6.05c-15.58.78-29.17 6.28-37.3 15.1-4.49 4.87-6.43 15.11-6.81 24.16h46.37c8.4-.24 16.96-2.22 24.65-5.73 18.22-8.29 30.69-23.53 35.14-42.9 2.94-12.83 2.51-26.92 2.09-40.54-.17-4.76-.32-9.67-.32-14.39zM124.92 89.82c10.86 0 19.7-8.84 19.7-19.7s-8.84-19.7-19.7-19.7-19.7 8.84-19.7 19.7c-.01 10.86 8.83 19.7 19.7 19.7z"/></svg>