<?xml version="1.0" encoding="utf-8"?>
<svg version="1.0" id="Layer_1" xmlns="http://www.w3.org/2000/svg" xmlns:xlink="http://www.w3.org/1999/xlink" x="0px" y="0px"
	 viewBox="0 0 865.06 253.01" style="enable-background:new 0 0 865.06 253.01;" xml:space="preserve">
<path class="st0" d="M257.95,101.99c-6.91-3.1-13.97-4.49-19.68-5.06v29.18C242.85,116.87,249.55,108.59,257.95,101.99z"/>
<path class="st0" d="M341.85,107.11c-1.56-1.23-3.18-2.4-4.86-3.49c-3.26-2.12-6.84-3.99-10.65-5.56c-1.31-0.54-2.61-1.01-3.94-1.47
	l-0.24-0.05c-0.63-0.12-1.67-0.32-2.55-0.83c-14.48-4.29-30.75-3.04-44.88,3.48l-3.83,2.39c2.24,1.68,4.3,3.49,6.12,5.47
	c7.69,8.34,8.73,17.6,8.73,25.56v6.99c0.26-0.3,0.51-0.62,0.79-0.89c3.92-3.88,9.08-5.75,15.54-5.74v0
	c6.12,0.05,11.15,1.98,14.96,5.74c1.15,1.13,2.15,2.46,3.05,3.92c1.04-4.05,2.4-8.01,4.11-11.77
	C328.43,121.57,334.48,113.55,341.85,107.11z"/>
<path class="st0" d="M271.94,111.75c-2.08-2.26-4.52-4.31-7.26-6.11c-16.4,11.71-26.38,30.18-26.4,49.44v0.58h-0.02
	c0,0.17-0.01,0.33-0.02,0.49c-0.17,10.08-2.8,17.96-7.68,22.79c-3.85,3.81-8.97,5.74-15.21,5.74c-0.11,0-0.22,0-0.34,0
	c-6.46-0.07-11.66-2.14-15.47-6.14c-8.56-9-7.92-25.35-7.41-38.49c0.11-2.7,0.21-5.23,0.21-7.46c0-9.51-2-15.56-6.89-20.86
	c-7.49-8.12-19.62-13.43-33.66-14.82v58.74c0,7,0.28,12.91,1.63,19c4.34,19.54,16.62,34.91,34.6,43.28
	c14.17,6.6,30.52,7.87,45.07,3.56c0.88-0.51,1.92-0.71,2.56-0.83l0.23-0.05c1.33-0.46,2.63-0.93,3.94-1.47
	c3.8-1.57,7.39-3.44,10.65-5.56c6.64-4.32,12.41-9.79,17.15-16.28c6.92-9.47,11.22-22.81,11.22-34.81v-0.5v-29.4
	C278.83,123.1,276.83,117.06,271.94,111.75z"/>
<path class="st0" d="M630.78,101.5c-5.53-2.33-11.78-3.91-18.48-4.57v27.83C616.69,115.89,622.99,107.93,630.78,101.5z"/>
<path class="st0" d="M505.57,36.86c-14.04,1.4-26.18,6.71-33.67,14.83c-4.89,5.3-6.89,11.35-6.89,20.86V89.9h40.55V36.86z"/>
<path class="st0" d="M465.02,224.52c14.04-1.4,26.18-6.7,33.67-14.82c5.05-5.48,6.89-21.87,6.89-31.55v-33.83h-40.55V224.52z"/>
<path class="st0" d="M604.58,177.44c-3.92,3.88-9.06,5.78-15.54,5.74c-6.38-0.07-11.54-2.09-15.34-6
	c-6.51-6.72-7.78-22.37-7.8-32.86h-40.07c0.09,9.09,0.55,24.04,1.61,28.84c4.34,19.54,16.62,34.91,34.6,43.28
	c13.61,6.34,29.22,7.75,43.33,4.04v-43.92C605.11,176.84,604.86,177.16,604.58,177.44z"/>
<path class="st0" d="M651.06,107.05c7.69,8.33,8.72,17.6,8.72,25.56v5.47c0.26-0.3,0.51-0.62,0.79-0.89
	c3.85-3.81,8.97-5.74,15.21-5.74c0.11,0,0.21,0,0.32,0h1.67c11.36-0.57,27.2-3.52,37.13-14.28c4.89-5.3,6.89-11.35,6.89-20.86v-4.19
	c-12.49-0.04-51.89,0.25-54.79,0.63c-1.79,0.25-3.56,0.57-5.27,0.95l-5.14,1.38c-4.51,1.45-8.76,3.4-12.75,5.72
	C646.52,102.68,648.95,104.76,651.06,107.05z"/>
<path class="st0" d="M645.97,111.75c-2.36-2.56-5.23-4.8-8.43-6.77c-15.43,11.57-25.24,29.56-25.24,48.65v2.03v0.5v62.06
	c0.51-0.19,1.03-0.36,1.53-0.57c3.8-1.57,7.39-3.44,10.65-5.56c6.64-4.32,12.42-9.8,17.15-16.28c6.73-9.21,10.94-22.07,11.17-33.8
	c0.01-0.33,0.04-0.68,0.04-1.01v-28.38C652.85,123.1,650.86,117.05,645.97,111.75z"/>
<path class="st0" d="M370.1,145.17c5.02-4.88,13.13-7.47,23.52-7.47l63.25-0.32h1.21V96.81L428.3,96.8c-4.71,0-9.61-0.15-14.35-0.3
	c-13.62-0.42-27.71-0.86-40.54,2.09c-7.65,1.76-14.65,4.79-20.84,8.91c2.54,2.56,4.94,5.27,7.1,8.22
	C360.73,117,367.55,125.87,370.1,145.17z"/>
<path class="st0" d="M565.97,137.38c-1.39-14.04-6.7-26.17-14.82-33.67c-5.31-4.89-11.35-6.89-20.86-6.89l-17.79,0v40.56H565.97z"/>
<path class="st0" d="M437.02,190.52c-5.31-4.89-11.35-6.89-20.86-6.89c-2.23,0-4.76,0.1-7.46,0.21
	c-13.13,0.51-29.48,1.15-38.48-7.41c-4-3.8-6.06-9.01-6.14-15.46c0-0.11,0.01-0.21,0.01-0.31c0-0.33,0.02-0.65,0.03-0.97
	c-0.19-27.93-9.69-39.43-9.79-39.54l-0.18-0.22c-2.16-2.96-4.57-5.69-7.15-8.21c-6.89,5.85-12.5,13.27-16.49,22.03
	c-3.51,7.7-5.49,16.25-5.73,24.75l0,3.88l0,0.2c0.25,8.48,2.23,17.02,5.73,24.7c8.29,18.22,23.53,30.69,42.89,35.14
	c12.82,2.94,26.91,2.51,40.53,2.09c4.74-0.15,9.65-0.3,14.37-0.3h23.53C450.45,210.14,445.14,198.01,437.02,190.52z"/>
<polygon class="st0" points="465.02,96.81 465.02,137.38 505.57,137.38 505.57,96.82 "/>
<path class="st0" d="M787.97,183.83c-2.33,0-4.76,0.11-7.33,0.22c-10.31,0.47-20.96,0.94-27.85-5.56
	c-4.09-3.87-6.13-9.54-6.21-17.33l-0.04-3.5h77.14c0.81-7.56,1.69-28.62-10.73-43.55c-9.26-11.12-24.13-16.76-44.2-16.76
	c-26.09,0-50.19,18.28-58.6,44.45l-1.35,5.05c-0.38,1.7-0.69,3.45-0.93,5.2c-0.5,3.62-0.7,7.21-0.6,10.67
	c0.24,8.5,2.23,17.06,5.73,24.75c8.29,18.22,23.53,30.69,42.89,35.14c12.43,2.85,20.46,2.53,30.64,2.13
	c3.96-0.16,8.45-0.34,13.58-0.34h23.53c-1.4-14.04-6.7-26.18-14.82-33.67C803.52,185.82,797.48,183.83,787.97,183.83z"/>
<path class="st0" d="M143.1,120.46V96.93c-14.04,1.4-26.17,6.71-33.67,14.83c-4.89,5.3-6.89,11.35-6.89,20.86
	c0,2.23,0.1,4.76,0.21,7.46c0.51,13.14,1.15,29.48-7.41,38.49c-3.8,4-9,6.06-15.46,6.14l-0.6,0.05c-15.58,0.78-29.17,6.28-37.3,15.1
	c-4.49,4.87-6.43,15.11-6.81,24.16h46.37c8.4-0.24,16.96-2.22,24.65-5.73c18.22-8.29,30.69-23.53,35.14-42.9
	c2.94-12.83,2.51-26.92,2.09-40.54C143.25,130.09,143.1,125.18,143.1,120.46z"/>
<path class="st0" d="M124.92,89.82c10.86,0,19.7-8.84,19.7-19.7c0-10.86-8.84-19.7-19.7-19.7s-19.7,8.84-19.7,19.7
	C105.21,80.98,114.05,89.82,124.92,89.82z"/>
</svg>
